<mxfile host="app.diagrams.net" modified="2022-11-07T09:17:50.076Z" agent="5.0 (Windows NT 10.0; Win64; x64) AppleWebKit/537.36 (KHTML, like Gecko) Chrome/106.0.0.0 Safari/537.36" etag="E8l97H6kgVKS7UraFKA3" version="20.5.3" type="github">
  <diagram id="F3-HToHU0AaHVmi-pwG5" name="Page-1">
    <mxGraphModel dx="3694" dy="1588" grid="1" gridSize="10" guides="1" tooltips="1" connect="1" arrows="1" fold="1" page="1" pageScale="1" pageWidth="850" pageHeight="1100" math="0" shadow="0">
      <root>
        <mxCell id="0" />
        <mxCell id="1" parent="0" />
        <mxCell id="k6L5swOgqQ6Sf8f8yYpH-12" value="JsonClassGenerator.cs" style="swimlane;childLayout=stackLayout;horizontal=1;startSize=30;horizontalStack=0;rounded=1;fontSize=14;fontStyle=1;strokeWidth=2;resizeParent=0;resizeLast=1;shadow=0;dashed=0;align=center;fillColor=#ffe6cc;strokeColor=#d79b00;" vertex="1" parent="1">
          <mxGeometry x="75" y="430" width="190" height="90" as="geometry" />
        </mxCell>
        <mxCell id="k6L5swOgqQ6Sf8f8yYpH-14" value="&lt;font style=&quot;font-size: 18px;&quot;&gt;GenerateClasses(....)&lt;/font&gt;" style="text;html=1;align=center;verticalAlign=middle;resizable=0;points=[];autosize=1;strokeColor=none;fillColor=none;" vertex="1" parent="k6L5swOgqQ6Sf8f8yYpH-12">
          <mxGeometry y="30" width="190" height="60" as="geometry" />
        </mxCell>
        <mxCell id="k6L5swOgqQ6Sf8f8yYpH-18" style="edgeStyle=orthogonalEdgeStyle;rounded=0;orthogonalLoop=1;jettySize=auto;html=1;entryX=0;entryY=0.5;entryDx=0;entryDy=0;strokeColor=default;strokeWidth=2;fontSize=18;" edge="1" parent="1" source="k6L5swOgqQ6Sf8f8yYpH-16">
          <mxGeometry relative="1" as="geometry">
            <mxPoint x="75" y="485" as="targetPoint" />
          </mxGeometry>
        </mxCell>
        <mxCell id="k6L5swOgqQ6Sf8f8yYpH-16" value="JSON input" style="text;html=1;strokeColor=none;fillColor=none;align=center;verticalAlign=middle;whiteSpace=wrap;rounded=0;fontSize=18;" vertex="1" parent="1">
          <mxGeometry x="-75" y="470" width="100" height="30" as="geometry" />
        </mxCell>
        <mxCell id="k6L5swOgqQ6Sf8f8yYpH-20" style="edgeStyle=orthogonalEdgeStyle;rounded=0;orthogonalLoop=1;jettySize=auto;html=1;entryX=0;entryY=0.5;entryDx=0;entryDy=0;strokeColor=default;strokeWidth=2;fontSize=18;" edge="1" parent="1">
          <mxGeometry relative="1" as="geometry">
            <mxPoint x="265" y="483.58" as="sourcePoint" />
            <mxPoint x="315" y="483.58" as="targetPoint" />
          </mxGeometry>
        </mxCell>
        <mxCell id="k6L5swOgqQ6Sf8f8yYpH-23" style="edgeStyle=orthogonalEdgeStyle;rounded=0;orthogonalLoop=1;jettySize=auto;html=1;strokeColor=default;strokeWidth=2;fontSize=14;" edge="1" parent="1" source="k6L5swOgqQ6Sf8f8yYpH-21">
          <mxGeometry relative="1" as="geometry">
            <mxPoint x="410" y="440" as="targetPoint" />
          </mxGeometry>
        </mxCell>
        <mxCell id="k6L5swOgqQ6Sf8f8yYpH-21" value="&lt;span style=&quot;font-weight: normal;&quot;&gt;&lt;font style=&quot;font-size: 14px;&quot;&gt;Parse Json&lt;/font&gt;&lt;/span&gt;" style="label;whiteSpace=wrap;html=1;image=img/clipart/Gear_128x128.png;fontSize=18;" vertex="1" parent="1">
          <mxGeometry x="330" y="360" width="160" height="50" as="geometry" />
        </mxCell>
        <mxCell id="k6L5swOgqQ6Sf8f8yYpH-24" value="&lt;span style=&quot;font-weight: normal;&quot;&gt;&lt;font style=&quot;font-size: 14px;&quot;&gt;Create a list of JObjects&lt;/font&gt;&lt;/span&gt;" style="label;whiteSpace=wrap;html=1;image=img/clipart/Gear_128x128.png;fontSize=18;" vertex="1" parent="1">
          <mxGeometry x="330" y="440" width="160" height="50" as="geometry" />
        </mxCell>
        <mxCell id="k6L5swOgqQ6Sf8f8yYpH-25" value="&lt;p style=&quot;line-height: 120%; font-size: 10px;&quot;&gt;&lt;font style=&quot;font-size: 10px;&quot;&gt;&lt;span style=&quot;font-weight: normal;&quot;&gt;&lt;font style=&quot;font-size: 10px;&quot;&gt;Analyse Types using&amp;nbsp;&lt;/font&gt;&lt;/span&gt;GenerateClass &lt;span style=&quot;font-weight: 400;&quot;&gt;Method&lt;/span&gt;&lt;/font&gt;&lt;/p&gt;" style="label;whiteSpace=wrap;html=1;image=img/clipart/Gear_128x128.png;fontSize=18;" vertex="1" parent="1">
          <mxGeometry x="330" y="520" width="160" height="50" as="geometry" />
        </mxCell>
        <mxCell id="k6L5swOgqQ6Sf8f8yYpH-28" style="edgeStyle=orthogonalEdgeStyle;rounded=0;orthogonalLoop=1;jettySize=auto;html=1;strokeColor=default;strokeWidth=2;fontSize=14;" edge="1" parent="1">
          <mxGeometry relative="1" as="geometry">
            <mxPoint x="409.9" y="520" as="targetPoint" />
            <mxPoint x="409.9" y="490" as="sourcePoint" />
          </mxGeometry>
        </mxCell>
        <mxCell id="k6L5swOgqQ6Sf8f8yYpH-29" value="&lt;p style=&quot;line-height: 120%; font-size: 10px;&quot;&gt;&lt;span style=&quot;font-weight: 400;&quot;&gt;Use the ICodeWriter Interface to write classes&amp;nbsp;&lt;/span&gt;&lt;/p&gt;" style="label;whiteSpace=wrap;html=1;image=img/clipart/Gear_128x128.png;fontSize=18;" vertex="1" parent="1">
          <mxGeometry x="330" y="600" width="160" height="50" as="geometry" />
        </mxCell>
        <mxCell id="k6L5swOgqQ6Sf8f8yYpH-31" style="edgeStyle=orthogonalEdgeStyle;rounded=0;orthogonalLoop=1;jettySize=auto;html=1;strokeColor=default;strokeWidth=2;fontSize=14;" edge="1" parent="1">
          <mxGeometry relative="1" as="geometry">
            <mxPoint x="409.80000000000007" y="600" as="targetPoint" />
            <mxPoint x="409.80000000000007" y="570" as="sourcePoint" />
          </mxGeometry>
        </mxCell>
        <mxCell id="k6L5swOgqQ6Sf8f8yYpH-32" value="" style="shape=curlyBracket;whiteSpace=wrap;html=1;rounded=1;flipH=1;labelPosition=right;verticalLabelPosition=middle;align=left;verticalAlign=middle;fontSize=10;rotation=-90;strokeWidth=4;" vertex="1" parent="1">
          <mxGeometry x="280" y="100" width="40" height="470" as="geometry" />
        </mxCell>
        <mxCell id="k6L5swOgqQ6Sf8f8yYpH-33" value="&lt;b&gt;&lt;font style=&quot;font-size: 17px;&quot;&gt;JSON Parsing/ Cleaning/ Analyzing&lt;/font&gt;&lt;/b&gt;" style="text;html=1;strokeColor=none;fillColor=none;align=center;verticalAlign=middle;whiteSpace=wrap;rounded=0;strokeWidth=4;fontSize=10;" vertex="1" parent="1">
          <mxGeometry x="150" y="280" width="330" height="30" as="geometry" />
        </mxCell>
        <mxCell id="k6L5swOgqQ6Sf8f8yYpH-34" value="" style="shape=curlyBracket;whiteSpace=wrap;html=1;rounded=1;flipH=1;labelPosition=right;verticalLabelPosition=middle;align=left;verticalAlign=middle;fontSize=10;rotation=-90;strokeWidth=4;" vertex="1" parent="1">
          <mxGeometry x="995" y="-95" width="40" height="860" as="geometry" />
        </mxCell>
        <mxCell id="k6L5swOgqQ6Sf8f8yYpH-35" value="&lt;b&gt;&lt;font style=&quot;font-size: 17px;&quot;&gt;Writing JSON Types to Classes&lt;/font&gt;&lt;/b&gt;" style="text;html=1;strokeColor=none;fillColor=none;align=center;verticalAlign=middle;whiteSpace=wrap;rounded=0;strokeWidth=4;fontSize=10;" vertex="1" parent="1">
          <mxGeometry x="850" y="280" width="330" height="30" as="geometry" />
        </mxCell>
        <mxCell id="k6L5swOgqQ6Sf8f8yYpH-36" value="JsonClassGenerator.cs" style="swimlane;childLayout=stackLayout;horizontal=1;startSize=30;horizontalStack=0;rounded=1;fontSize=14;fontStyle=1;strokeWidth=2;resizeParent=0;resizeLast=1;shadow=0;dashed=0;align=center;fillColor=#ffe6cc;strokeColor=#d79b00;" vertex="1" parent="1">
          <mxGeometry x="570" y="410" width="220" height="90" as="geometry" />
        </mxCell>
        <mxCell id="k6L5swOgqQ6Sf8f8yYpH-37" value="&lt;font style=&quot;font-size: 18px;&quot;&gt;WriteClassesToFile(...)&lt;/font&gt;" style="text;html=1;align=center;verticalAlign=middle;resizable=0;points=[];autosize=1;strokeColor=none;fillColor=none;" vertex="1" parent="k6L5swOgqQ6Sf8f8yYpH-36">
          <mxGeometry y="30" width="220" height="60" as="geometry" />
        </mxCell>
        <mxCell id="k6L5swOgqQ6Sf8f8yYpH-38" style="edgeStyle=orthogonalEdgeStyle;rounded=0;orthogonalLoop=1;jettySize=auto;html=1;entryX=0;entryY=0.5;entryDx=0;entryDy=0;strokeColor=default;strokeWidth=2;fontSize=18;" edge="1" parent="1">
          <mxGeometry relative="1" as="geometry">
            <mxPoint x="790" y="454.5799999999999" as="sourcePoint" />
            <mxPoint x="840" y="454.5799999999999" as="targetPoint" />
          </mxGeometry>
        </mxCell>
        <mxCell id="k6L5swOgqQ6Sf8f8yYpH-39" value="&lt;font style=&quot;font-size: 14px;&quot;&gt;ICodeWriter&lt;/font&gt;" style="label;whiteSpace=wrap;html=1;image=img/clipart/Gear_128x128.png;fontSize=18;" vertex="1" parent="1">
          <mxGeometry x="840" y="390" width="160" height="50" as="geometry" />
        </mxCell>
        <mxCell id="k6L5swOgqQ6Sf8f8yYpH-40" value="&lt;font style=&quot;font-size: 14px;&quot;&gt;CSharpCodeWriter&lt;/font&gt;" style="label;whiteSpace=wrap;html=1;image=img/clipart/Gear_128x128.png;fontSize=18;" vertex="1" parent="1">
          <mxGeometry x="830" y="480" width="200" height="50" as="geometry" />
        </mxCell>
        <mxCell id="k6L5swOgqQ6Sf8f8yYpH-41" value="&lt;b&gt;&lt;font style=&quot;font-size: 24px;&quot;&gt;=&lt;/font&gt;&lt;/b&gt;" style="text;html=1;strokeColor=none;fillColor=none;align=center;verticalAlign=middle;whiteSpace=wrap;rounded=0;fontSize=18;" vertex="1" parent="1">
          <mxGeometry x="895" y="450" width="50" height="30" as="geometry" />
        </mxCell>
        <mxCell id="k6L5swOgqQ6Sf8f8yYpH-43" value="&lt;font style=&quot;font-size: 14px;&quot;&gt;CSharpCodeWriterConfig&lt;/font&gt;" style="label;whiteSpace=wrap;html=1;image=img/clipart/Gear_128x128.png;fontSize=18;" vertex="1" parent="1">
          <mxGeometry x="810" y="570" width="240" height="50" as="geometry" />
        </mxCell>
        <mxCell id="k6L5swOgqQ6Sf8f8yYpH-44" style="edgeStyle=orthogonalEdgeStyle;rounded=0;orthogonalLoop=1;jettySize=auto;html=1;entryX=0.5;entryY=1;entryDx=0;entryDy=0;strokeColor=default;strokeWidth=2;fontSize=18;exitX=0.5;exitY=0;exitDx=0;exitDy=0;" edge="1" parent="1" source="k6L5swOgqQ6Sf8f8yYpH-43" target="k6L5swOgqQ6Sf8f8yYpH-40">
          <mxGeometry relative="1" as="geometry">
            <mxPoint x="935" y="559.9999999999999" as="sourcePoint" />
            <mxPoint x="985" y="559.9999999999999" as="targetPoint" />
          </mxGeometry>
        </mxCell>
        <mxCell id="k6L5swOgqQ6Sf8f8yYpH-45" value="" style="shape=curlyBracket;whiteSpace=wrap;html=1;rounded=1;flipH=1;labelPosition=right;verticalLabelPosition=middle;align=left;verticalAlign=middle;strokeWidth=4;fontSize=24;" vertex="1" parent="1">
          <mxGeometry x="1080" y="470" width="40" height="160" as="geometry" />
        </mxCell>
        <mxCell id="k6L5swOgqQ6Sf8f8yYpH-49" value="&lt;span style=&quot;font-size: 14px; font-weight: 700;&quot;&gt;CSharpCodeWriter.cs&lt;/span&gt;" style="rounded=0;whiteSpace=wrap;html=1;strokeWidth=3;fontSize=24;fillColor=#ffe6cc;strokeColor=#d79b00;" vertex="1" parent="1">
          <mxGeometry x="1140" y="436.5" width="190" height="40" as="geometry" />
        </mxCell>
        <mxCell id="k6L5swOgqQ6Sf8f8yYpH-50" value="&lt;font style=&quot;font-size: 14px;&quot;&gt;WriteFileStart(...)&lt;/font&gt;" style="label;whiteSpace=wrap;html=1;image=img/clipart/Gear_128x128.png;fontSize=18;" vertex="1" parent="1">
          <mxGeometry x="1140" y="491.5" width="190" height="50" as="geometry" />
        </mxCell>
        <mxCell id="k6L5swOgqQ6Sf8f8yYpH-51" value="&lt;font style=&quot;font-size: 14px;&quot;&gt;WriteFileEnd(...)&lt;/font&gt;" style="label;whiteSpace=wrap;html=1;image=img/clipart/Gear_128x128.png;fontSize=18;" vertex="1" parent="1">
          <mxGeometry x="1140" y="546.5" width="190" height="50" as="geometry" />
        </mxCell>
        <mxCell id="k6L5swOgqQ6Sf8f8yYpH-52" value="&lt;span style=&quot;font-size: 14px;&quot;&gt;Etc...&lt;/span&gt;" style="label;whiteSpace=wrap;html=1;image=img/clipart/Gear_128x128.png;fontSize=18;" vertex="1" parent="1">
          <mxGeometry x="1140" y="603.5" width="190" height="50" as="geometry" />
        </mxCell>
        <mxCell id="k6L5swOgqQ6Sf8f8yYpH-54" value="&lt;b&gt;&lt;font style=&quot;font-size: 17px;&quot;&gt;Each language has an implementation of the ICodeWriter Interface and a config class&lt;/font&gt;&lt;/b&gt;" style="text;html=1;strokeColor=none;fillColor=none;align=center;verticalAlign=middle;whiteSpace=wrap;rounded=0;strokeWidth=4;fontSize=10;" vertex="1" parent="1">
          <mxGeometry x="762.5" y="620" width="315" height="80" as="geometry" />
        </mxCell>
      </root>
    </mxGraphModel>
  </diagram>
</mxfile>
